<?xml version="1.0" standalone="no"?>
 <!DOCTYPE svg PUBLIC "-//W3C//DTD SVG 1.1//EN" 
 "http://www.w3.org/Graphics/SVG/1.1/DTD/svg11.dtd"> 
<svg
  xmlns:svg="http://www.w3.org/2000/svg"
  xmlns="http://www.w3.org/2000/svg"
  xmlns:xlink="http://www.w3.org/1999/xlink"
  version="1.1"
  width="14.9098mm" height="149.9616mm" viewBox="0.0000 0.0000 14.9098 149.9616">
<title>SVG Image created as STOF_v3-brd.svg date 2026/05/17 16:44:39 </title>
  <desc>Image generated by PCBNEW </desc>
<g style="fill:#000000; fill-opacity:1.0000;stroke:#000000; stroke-opacity:1.0000;
stroke-linecap:round; stroke-linejoin:round;"
 transform="translate(0 0) scale(1 1)">
<path style="fill:#000000; fill-opacity:1.0000; stroke:none;fill-rule:evenodd;"
d="M 6.0560,145.3000
6.0638,145.2610
6.0859,145.2279
6.1190,145.2058
6.1580,145.1980
7.1580,145.1980
7.1971,145.2058
7.2302,145.2279
7.2523,145.2610
7.2600,145.3000
7.2600,146.7500
7.2523,146.7890
7.2302,146.8221
7.1971,146.8442
7.1580,146.8520
6.1580,146.8520
6.1190,146.8442
6.0859,146.8221
6.0638,146.7890
6.0560,146.7500
Z" /> 
<path style="fill:#000000; fill-opacity:1.0000; stroke:none;fill-rule:evenodd;"
d="M 7.6560,145.3000
7.6638,145.2610
7.6859,145.2279
7.7190,145.2058
7.7580,145.1980
8.7580,145.1980
8.7971,145.2058
8.8302,145.2279
8.8523,145.2610
8.8600,145.3000
8.8600,146.7500
8.8523,146.7890
8.8302,146.8221
8.7971,146.8442
8.7580,146.8520
7.7580,146.8520
7.7190,146.8442
7.6859,146.8221
7.6638,146.7890
7.6560,146.7500
Z" /> 
<path style="fill:#000000; fill-opacity:1.0000; stroke:none;fill-rule:evenodd;"
d="M 8.5380,5.5750
8.5396,5.5673
8.5439,5.5609
8.5504,5.5565
8.5580,5.5550
8.8580,5.5550
8.8657,5.5565
8.8722,5.5609
8.8765,5.5673
8.8780,5.5750
8.8780,6.8750
8.8765,6.8827
8.8722,6.8891
8.8657,6.8935
8.8580,6.8950
8.5580,6.8950
8.5504,6.8935
8.5439,6.8891
8.5396,6.8827
8.5380,6.8750
Z" /> 
<path style="fill:#000000; fill-opacity:1.0000; stroke:none;fill-rule:evenodd;"
d="M 8.0380,5.5750
8.0396,5.5673
8.0439,5.5609
8.0504,5.5565
8.0580,5.5550
8.3580,5.5550
8.3657,5.5565
8.3722,5.5609
8.3765,5.5673
8.3780,5.5750
8.3780,6.8750
8.3765,6.8827
8.3722,6.8891
8.3657,6.8935
8.3580,6.8950
8.0580,6.8950
8.0504,6.8935
8.0439,6.8891
8.0396,6.8827
8.0380,6.8750
Z" /> 
<path style="fill:#000000; fill-opacity:1.0000; stroke:none;fill-rule:evenodd;"
d="M 7.5380,5.5750
7.5396,5.5673
7.5439,5.5609
7.5504,5.5565
7.5580,5.5550
7.8580,5.5550
7.8657,5.5565
7.8722,5.5609
7.8765,5.5673
7.8780,5.5750
7.8780,6.8750
7.8765,6.8827
7.8722,6.8891
7.8657,6.8935
7.8580,6.8950
7.5580,6.8950
7.5504,6.8935
7.5439,6.8891
7.5396,6.8827
7.5380,6.8750
Z" /> 
<path style="fill:#000000; fill-opacity:1.0000; stroke:none;fill-rule:evenodd;"
d="M 7.0380,5.5750
7.0396,5.5673
7.0439,5.5609
7.0504,5.5565
7.0580,5.5550
7.3580,5.5550
7.3657,5.5565
7.3722,5.5609
7.3765,5.5673
7.3780,5.5750
7.3780,6.8750
7.3765,6.8827
7.3722,6.8891
7.3657,6.8935
7.3580,6.8950
7.0580,6.8950
7.0504,6.8935
7.0439,6.8891
7.0396,6.8827
7.0380,6.8750
Z" /> 
<path style="fill:#000000; fill-opacity:1.0000; stroke:none;fill-rule:evenodd;"
d="M 6.5380,5.5750
6.5396,5.5673
6.5439,5.5609
6.5504,5.5565
6.5580,5.5550
6.8580,5.5550
6.8657,5.5565
6.8722,5.5609
6.8765,5.5673
6.8780,5.5750
6.8780,6.8750
6.8765,6.8827
6.8722,6.8891
6.8657,6.8935
6.8580,6.8950
6.5580,6.8950
6.5504,6.8935
6.5439,6.8891
6.5396,6.8827
6.5380,6.8750
Z" /> 
<path style="fill:#000000; fill-opacity:1.0000; stroke:none;fill-rule:evenodd;"
d="M 6.0380,5.5750
6.0396,5.5673
6.0439,5.5609
6.0504,5.5565
6.0580,5.5550
6.3580,5.5550
6.3657,5.5565
6.3722,5.5609
6.3765,5.5673
6.3780,5.5750
6.3780,6.8750
6.3765,6.8827
6.3722,6.8891
6.3657,6.8935
6.3580,6.8950
6.0580,6.8950
6.0504,6.8935
6.0439,6.8891
6.0396,6.8827
6.0380,6.8750
Z" /> 
<path style="fill:#000000; fill-opacity:1.0000; stroke:none;fill-rule:evenodd;"
d="M 3.2060,1.8750
3.2138,1.8360
3.2359,1.8029
3.2690,1.7808
3.3080,1.7730
5.2080,1.7730
5.2471,1.7808
5.2802,1.8029
5.3023,1.8360
5.3100,1.8750
5.3100,4.0750
5.3023,4.1140
5.2802,4.1471
5.2471,4.1692
5.2080,4.1770
3.3080,4.1770
3.2690,4.1692
3.2359,4.1471
3.2138,4.1140
3.2060,4.0750
Z" /> 
<path style="fill:#000000; fill-opacity:1.0000; stroke:none;fill-rule:evenodd;"
d="M 9.6060,1.8750
9.6138,1.8360
9.6359,1.8029
9.6690,1.7808
9.7080,1.7730
11.6080,1.7730
11.6471,1.7808
11.6802,1.8029
11.7023,1.8360
11.7100,1.8750
11.7100,4.0750
11.7023,4.1140
11.6802,4.1471
11.6471,4.1692
11.6080,4.1770
9.7080,4.1770
9.6690,4.1692
9.6359,4.1471
9.6138,4.1140
9.6060,4.0750
Z" /> 
<path style="fill:#000000; fill-opacity:1.0000; stroke:none;fill-rule:evenodd;"
d="M 4.6830,141.1480
4.7221,141.1558
4.7552,141.1779
4.7773,141.2110
4.7850,141.2500
4.7850,142.2500
4.7773,142.2890
4.7552,142.3221
4.7221,142.3442
4.6830,142.3520
3.2330,142.3520
3.1940,142.3442
3.1609,142.3221
3.1388,142.2890
3.1310,142.2500
3.1310,141.2500
3.1388,141.2110
3.1609,141.1779
3.1940,141.1558
3.2330,141.1480
Z" /> 
<path style="fill:#000000; fill-opacity:1.0000; stroke:none;fill-rule:evenodd;"
d="M 4.6830,142.7480
4.7221,142.7558
4.7552,142.7779
4.7773,142.8110
4.7850,142.8500
4.7850,143.8500
4.7773,143.8890
4.7552,143.9221
4.7221,143.9442
4.6830,143.9520
3.2330,143.9520
3.1940,143.9442
3.1609,143.9221
3.1388,143.8890
3.1310,143.8500
3.1310,142.8500
3.1388,142.8110
3.1609,142.7779
3.1940,142.7558
3.2330,142.7480
Z" /> 
<path style="fill:#000000; fill-opacity:1.0000; stroke:none;fill-rule:evenodd;"
d="M 10.2330,143.9270
10.1940,143.9192
10.1609,143.8971
10.1388,143.8640
10.1310,143.8250
10.1310,142.8250
10.1388,142.7860
10.1609,142.7529
10.1940,142.7308
10.2330,142.7230
11.6830,142.7230
11.7221,142.7308
11.7552,142.7529
11.7773,142.7860
11.7850,142.8250
11.7850,143.8250
11.7773,143.8640
11.7552,143.8971
11.7221,143.9192
11.6830,143.9270
Z" /> 
<path style="fill:#000000; fill-opacity:1.0000; stroke:none;fill-rule:evenodd;"
d="M 10.2330,142.3270
10.1940,142.3192
10.1609,142.2971
10.1388,142.2640
10.1310,142.2250
10.1310,141.2250
10.1388,141.1860
10.1609,141.1529
10.1940,141.1308
10.2330,141.1230
11.6830,141.1230
11.7221,141.1308
11.7552,141.1529
11.7773,141.1860
11.7850,141.2250
11.7850,142.2250
11.7773,142.2640
11.7552,142.2971
11.7221,142.3192
11.6830,142.3270
Z" /> 
<path style="fill:#000000; fill-opacity:1.0000; stroke:none;fill-rule:evenodd;"
d="M 6.0560,138.3000
6.0638,138.2610
6.0859,138.2279
6.1190,138.2058
6.1580,138.1980
7.1580,138.1980
7.1971,138.2058
7.2302,138.2279
7.2523,138.2610
7.2600,138.3000
7.2600,139.7500
7.2523,139.7890
7.2302,139.8221
7.1971,139.8442
7.1580,139.8520
6.1580,139.8520
6.1190,139.8442
6.0859,139.8221
6.0638,139.7890
6.0560,139.7500
Z" /> 
<path style="fill:#000000; fill-opacity:1.0000; stroke:none;fill-rule:evenodd;"
d="M 7.6560,138.3000
7.6638,138.2610
7.6859,138.2279
7.7190,138.2058
7.7580,138.1980
8.7580,138.1980
8.7971,138.2058
8.8302,138.2279
8.8523,138.2610
8.8600,138.3000
8.8600,139.7500
8.8523,139.7890
8.8302,139.8221
8.7971,139.8442
8.7580,139.8520
7.7580,139.8520
7.7190,139.8442
7.6859,139.8221
7.6638,139.7890
7.6560,139.7500
Z" /> 
<path style="fill:#000000; fill-opacity:1.0000; stroke:none;fill-rule:evenodd;"
d="M 6.0330,142.0687
6.0516,141.9755
6.1044,141.8964
6.1835,141.8436
6.2768,141.8250
6.7643,141.8250
6.8576,141.8436
6.9366,141.8964
6.9895,141.9755
7.0080,142.0687
7.0080,142.9812
6.9895,143.0745
6.9366,143.1536
6.8576,143.2064
6.7643,143.2250
6.2768,143.2250
6.1835,143.2064
6.1044,143.1536
6.0516,143.0745
6.0330,142.9812
Z" /> 
<path style="fill:#000000; fill-opacity:1.0000; stroke:none;fill-rule:evenodd;"
d="M 7.9080,142.0687
7.9266,141.9755
7.9794,141.8964
8.0585,141.8436
8.1518,141.8250
8.6393,141.8250
8.7326,141.8436
8.8116,141.8964
8.8645,141.9755
8.8830,142.0687
8.8830,142.9812
8.8645,143.0745
8.8116,143.1536
8.7326,143.2064
8.6393,143.2250
8.1518,143.2250
8.0585,143.2064
7.9794,143.1536
7.9266,143.0745
7.9080,142.9812
Z" /> 
<path style="fill:#000000; fill-opacity:1.0000; stroke:none;fill-rule:evenodd;"
d="M 8.6080,124.0750
8.5698,124.0674
8.5373,124.0457
8.5156,124.0133
8.5080,123.9750
8.5080,123.7150
8.5156,123.6767
8.5373,123.6443
8.5698,123.6226
8.6080,123.6150
8.8080,123.6150
8.8463,123.6226
8.8787,123.6443
8.9004,123.6767
8.9080,123.7150
8.9080,123.9750
8.9004,124.0133
8.8787,124.0457
8.8463,124.0674
8.8080,124.0750
Z" /> 
<path style="fill:#000000; fill-opacity:1.0000; stroke:none;fill-rule:evenodd;"
d="M 8.6080,123.4350
8.5698,123.4274
8.5373,123.4057
8.5156,123.3733
8.5080,123.3350
8.5080,123.0750
8.5156,123.0367
8.5373,123.0043
8.5698,122.9826
8.6080,122.9750
8.8080,122.9750
8.8463,122.9826
8.8787,123.0043
8.9004,123.0367
8.9080,123.0750
8.9080,123.3350
8.9004,123.3733
8.8787,123.4057
8.8463,123.4274
8.8080,123.4350
Z" /> 
<path style="fill:#000000; fill-opacity:1.0000; stroke:none;fill-rule:evenodd;"
d="M 6.1580,146.7500
6.1580,145.3000
7.1580,145.3000
7.1580,146.7500
Z" /> 
<path style="fill:#000000; fill-opacity:1.0000; stroke:none;fill-rule:evenodd;"
d="M 7.7580,146.7500
7.7580,145.3000
8.7580,145.3000
8.7580,146.7500
Z" /> 
<path style="fill:#000000; fill-opacity:1.0000; stroke:none;fill-rule:evenodd;"
d="M 8.5580,6.8750
8.5580,5.5750
8.8580,5.5750
8.8580,6.8750
Z" /> 
<path style="fill:#000000; fill-opacity:1.0000; stroke:none;fill-rule:evenodd;"
d="M 8.0580,6.8750
8.0580,5.5750
8.3580,5.5750
8.3580,6.8750
Z" /> 
<path style="fill:#000000; fill-opacity:1.0000; stroke:none;fill-rule:evenodd;"
d="M 7.5580,6.8750
7.5580,5.5750
7.8580,5.5750
7.8580,6.8750
Z" /> 
<path style="fill:#000000; fill-opacity:1.0000; stroke:none;fill-rule:evenodd;"
d="M 7.0580,6.8750
7.0580,5.5750
7.3580,5.5750
7.3580,6.8750
Z" /> 
<path style="fill:#000000; fill-opacity:1.0000; stroke:none;fill-rule:evenodd;"
d="M 6.5580,6.8750
6.5580,5.5750
6.8580,5.5750
6.8580,6.8750
Z" /> 
<path style="fill:#000000; fill-opacity:1.0000; stroke:none;fill-rule:evenodd;"
d="M 6.0580,6.8750
6.0580,5.5750
6.3580,5.5750
6.3580,6.8750
Z" /> 
<path style="fill:#000000; fill-opacity:1.0000; stroke:none;fill-rule:evenodd;"
d="M 3.3080,4.0750
3.3080,1.8750
5.2080,1.8750
5.2080,4.0750
Z" /> 
<path style="fill:#000000; fill-opacity:1.0000; stroke:none;fill-rule:evenodd;"
d="M 9.7080,4.0750
9.7080,1.8750
11.6080,1.8750
11.6080,4.0750
Z" /> 
<path style="fill:#000000; fill-opacity:1.0000; stroke:none;fill-rule:evenodd;"
d="M 3.2330,141.2500
4.6830,141.2500
4.6830,142.2500
3.2330,142.2500
Z" /> 
<path style="fill:#000000; fill-opacity:1.0000; stroke:none;fill-rule:evenodd;"
d="M 3.2330,142.8500
4.6830,142.8500
4.6830,143.8500
3.2330,143.8500
Z" /> 
<path style="fill:#000000; fill-opacity:1.0000; stroke:none;fill-rule:evenodd;"
d="M 11.6830,143.8250
10.2330,143.8250
10.2330,142.8250
11.6830,142.8250
Z" /> 
<path style="fill:#000000; fill-opacity:1.0000; stroke:none;fill-rule:evenodd;"
d="M 11.6830,142.2250
10.2330,142.2250
10.2330,141.2250
11.6830,141.2250
Z" /> 
<path style="fill:#000000; fill-opacity:1.0000; stroke:none;fill-rule:evenodd;"
d="M 6.1580,139.7500
6.1580,138.3000
7.1580,138.3000
7.1580,139.7500
Z" /> 
<path style="fill:#000000; fill-opacity:1.0000; stroke:none;fill-rule:evenodd;"
d="M 7.7580,139.7500
7.7580,138.3000
8.7580,138.3000
8.7580,139.7500
Z" /> 
<path style="fill:#000000; fill-opacity:1.0000; stroke:none;fill-rule:evenodd;"
d="M 6.0330,142.0687
6.0516,141.9755
6.1044,141.8964
6.1835,141.8436
6.2768,141.8250
6.7643,141.8250
6.8576,141.8436
6.9366,141.8964
6.9895,141.9755
7.0080,142.0687
7.0080,142.9812
6.9895,143.0745
6.9366,143.1536
6.8576,143.2064
6.7643,143.2250
6.2768,143.2250
6.1835,143.2064
6.1044,143.1536
6.0516,143.0745
6.0330,142.9812
Z" /> 
<path style="fill:#000000; fill-opacity:1.0000; stroke:none;fill-rule:evenodd;"
d="M 7.9080,142.0687
7.9266,141.9755
7.9794,141.8964
8.0585,141.8436
8.1518,141.8250
8.6393,141.8250
8.7326,141.8436
8.8116,141.8964
8.8645,141.9755
8.8830,142.0687
8.8830,142.9812
8.8645,143.0745
8.8116,143.1536
8.7326,143.2064
8.6393,143.2250
8.1518,143.2250
8.0585,143.2064
7.9794,143.1536
7.9266,143.0745
7.9080,142.9812
Z" /> 
<path style="fill:#000000; fill-opacity:1.0000; stroke:none;fill-rule:evenodd;"
d="M 8.6075,124.0290
8.5771,124.0229
8.5513,124.0057
8.5341,123.9799
8.5280,123.9495
8.5280,123.7905
8.5341,123.7601
8.5513,123.7343
8.5771,123.7171
8.6075,123.7110
8.8085,123.7110
8.8390,123.7171
8.8647,123.7343
8.8820,123.7601
8.8880,123.7905
8.8880,123.9495
8.8820,123.9799
8.8647,124.0057
8.8390,124.0229
8.8085,124.0290
Z" /> 
<path style="fill:#000000; fill-opacity:1.0000; stroke:none;fill-rule:evenodd;"
d="M 8.6075,123.3390
8.5771,123.3329
8.5513,123.3157
8.5341,123.2899
8.5280,123.2595
8.5280,123.1005
8.5341,123.0701
8.5513,123.0443
8.5771,123.0271
8.6075,123.0210
8.8085,123.0210
8.8390,123.0271
8.8647,123.0443
8.8820,123.0701
8.8880,123.1005
8.8880,123.2595
8.8820,123.2899
8.8647,123.3157
8.8390,123.3329
8.8085,123.3390
Z" /> 
</g>
<g style="fill:none; 
stroke:#000000; stroke-width:0.2000; stroke-opacity:1; 
stroke-linecap:round; stroke-linejoin:round;">
<circle cx="5.2580" cy="146.0250" r="0.1000" /> 
</g>
<g style="fill:none; 
stroke:#000000; stroke-width:0.1270; stroke-opacity:1; 
stroke-linecap:round; stroke-linejoin:round;">
<path d="M3.8080 0.5250
L3.8080 1.5250
" />
<path d="M3.8080 4.4250
L3.8080 5.5250
" />
<path d="M3.8080 5.5250
L5.7080 5.5250
" />
<path d="M9.2080 5.5250
L11.1080 5.5250
" />
<path d="M11.1080 0.5250
L3.8080 0.5250
" />
<path d="M11.1080 1.5250
L11.1080 0.5250
" />
<path d="M11.1080 5.5250
L11.1080 4.4250
" />
</g>
<g style="fill:none; 
stroke:#000000; stroke-width:0.2000; stroke-opacity:1; 
stroke-linecap:round; stroke-linejoin:round;">
<circle cx="8.7080" cy="7.5900" r="0.1000" /> 
<circle cx="3.9580" cy="140.3500" r="0.1000" /> 
<circle cx="10.9580" cy="144.7250" r="0.1000" /> 
<circle cx="5.2580" cy="139.0250" r="0.1000" /> 
</g>
<g style="fill:none; 
stroke:#000000; stroke-width:0.1200; stroke-opacity:1; 
stroke-linecap:round; stroke-linejoin:round;">
<path d="M5.7730 141.5650
L5.7730 143.4850
" />
<path d="M5.7730 143.4850
L8.4580 143.4850
" />
<path d="M8.4580 141.5650
L5.7730 141.5650
" />
</g>
<g style="fill:none; 
stroke:#000000; stroke-width:0.0500; stroke-opacity:1; 
stroke-linecap:round; stroke-linejoin:round;">
<path d="M5.9080 146.9000
L5.9080 145.1500
" />
<path d="M9.0080 145.1500
L5.9080 145.1500
" />
<path d="M9.0080 145.1500
L9.0080 146.9000
" />
<path d="M9.0080 146.9000
L5.9080 146.9000
" />
<path d="M3.0580 0.2750
L11.8580 0.2750
" />
<path d="M3.0580 7.1250
L3.0580 0.2750
" />
<path d="M11.8580 0.2750
L11.8580 7.1250
" />
<path d="M11.8580 7.1250
L3.0580 7.1250
" />
<path d="M3.0830 141.0000
L4.8330 141.0000
" />
<path d="M3.0830 144.1000
L3.0830 141.0000
" />
<path d="M4.8330 144.1000
L3.0830 144.1000
" />
<path d="M4.8330 144.1000
L4.8330 141.0000
" />
<path d="M10.0830 140.9750
L10.0830 144.0750
" />
<path d="M10.0830 140.9750
L11.8330 140.9750
" />
<path d="M11.8330 140.9750
L11.8330 144.0750
" />
<path d="M11.8330 144.0750
L10.0830 144.0750
" />
<path d="M5.9080 139.9000
L5.9080 138.1500
" />
<path d="M9.0080 138.1500
L5.9080 138.1500
" />
<path d="M9.0080 138.1500
L9.0080 139.9000
" />
<path d="M9.0080 139.9000
L5.9080 139.9000
" />
<path d="M5.7780 141.5750
L9.1380 141.5750
" />
<path d="M5.7780 143.4750
L5.7780 141.5750
" />
<path d="M9.1380 141.5750
L9.1380 143.4750
" />
<path d="M9.1380 143.4750
L5.7780 143.4750
" />
<path d="M8.3580 122.8250
L9.0580 122.8250
" />
<path d="M8.3580 124.2250
L8.3580 122.8250
" />
<path d="M9.0580 122.8250
L9.0580 124.2250
" />
<path d="M9.0580 124.2250
L8.3580 124.2250
" />
</g>
<g style="fill:none; 
stroke:#000000; stroke-width:0.1270; stroke-opacity:1; 
stroke-linecap:round; stroke-linejoin:round;">
<path d="M6.4580 145.4000
L8.4580 145.4000
" />
<path d="M6.4580 146.6500
L6.4580 145.4000
" />
<path d="M8.4580 145.4000
L8.4580 146.6500
" />
<path d="M8.4580 146.6500
L6.4580 146.6500
" />
</g>
<g style="fill:none; 
stroke:#000000; stroke-width:0.2000; stroke-opacity:1; 
stroke-linecap:round; stroke-linejoin:round;">
<circle cx="5.2580" cy="146.0250" r="0.1000" /> 
</g>
<g style="fill:none; 
stroke:#000000; stroke-width:0.1270; stroke-opacity:1; 
stroke-linecap:round; stroke-linejoin:round;">
<path d="M3.8080 0.5250
L11.1080 0.5250
" />
<path d="M3.8080 5.5250
L3.8080 0.5250
" />
<path d="M11.1080 0.5250
L11.1080 5.5250
" />
<path d="M11.1080 5.5250
L3.8080 5.5250
" />
</g>
<g style="fill:none; 
stroke:#000000; stroke-width:0.2000; stroke-opacity:1; 
stroke-linecap:round; stroke-linejoin:round;">
<circle cx="8.7080" cy="7.5900" r="0.1000" /> 
</g>
<g style="fill:none; 
stroke:#000000; stroke-width:0.1270; stroke-opacity:1; 
stroke-linecap:round; stroke-linejoin:round;">
<path d="M3.3330 141.5500
L4.5830 141.5500
" />
<path d="M3.3330 143.5500
L3.3330 141.5500
" />
<path d="M4.5830 141.5500
L4.5830 143.5500
" />
<path d="M4.5830 143.5500
L3.3330 143.5500
" />
</g>
<g style="fill:none; 
stroke:#000000; stroke-width:0.2000; stroke-opacity:1; 
stroke-linecap:round; stroke-linejoin:round;">
<circle cx="3.9580" cy="140.3500" r="0.1000" /> 
</g>
<g style="fill:none; 
stroke:#000000; stroke-width:0.1270; stroke-opacity:1; 
stroke-linecap:round; stroke-linejoin:round;">
<path d="M10.3330 141.5250
L11.5830 141.5250
" />
<path d="M10.3330 143.5250
L10.3330 141.5250
" />
<path d="M11.5830 141.5250
L11.5830 143.5250
" />
<path d="M11.5830 143.5250
L10.3330 143.5250
" />
</g>
<g style="fill:none; 
stroke:#000000; stroke-width:0.2000; stroke-opacity:1; 
stroke-linecap:round; stroke-linejoin:round;">
<circle cx="10.9580" cy="144.7250" r="0.1000" /> 
</g>
<g style="fill:none; 
stroke:#000000; stroke-width:0.1270; stroke-opacity:1; 
stroke-linecap:round; stroke-linejoin:round;">
<path d="M6.4580 138.4000
L8.4580 138.4000
" />
<path d="M6.4580 139.6500
L6.4580 138.4000
" />
<path d="M8.4580 138.4000
L8.4580 139.6500
" />
<path d="M8.4580 139.6500
L6.4580 139.6500
" />
</g>
<g style="fill:none; 
stroke:#000000; stroke-width:0.2000; stroke-opacity:1; 
stroke-linecap:round; stroke-linejoin:round;">
<circle cx="5.2580" cy="139.0250" r="0.1000" /> 
</g>
<g style="fill:none; 
stroke:#000000; stroke-width:0.1000; stroke-opacity:1; 
stroke-linecap:round; stroke-linejoin:round;">
<path d="M6.4580 142.2250
L6.4580 143.1250
" />
<path d="M6.4580 143.1250
L8.4580 143.1250
" />
<path d="M6.7580 141.9250
L6.4580 142.2250
" />
<path d="M8.4580 141.9250
L6.7580 141.9250
" />
<path d="M8.4580 143.1250
L8.4580 141.9250
" />
<path d="M8.5580 123.2250
L8.8580 123.2250
" />
<path d="M8.5580 123.8250
L8.5580 123.2250
" />
<path d="M8.8580 123.2250
L8.8580 123.8250
" />
<path d="M8.8580 123.8250
L8.5580 123.8250
" />
</g>
<g style="fill:none; 
stroke:#000000; stroke-width:0.0500; stroke-opacity:1; 
stroke-linecap:round; stroke-linejoin:round;">
<path d="M2.4580 0.0250
L12.4580 0.0250
" />
<path d="M12.4580 0.0250
L12.4580 137.0250
" />
<path d="M2.4580 137.0250
L2.4580 0.0250
" />
<path d="M2.4580 137.0250 A7.4330 7.4330 0.0 1 0 12.4580 137.0250" />
<path style="fill:#000000; fill-opacity:1.0000; stroke:none;fill-rule:evenodd;"
d="M 6.1580,146.7500
6.1580,145.3000
7.1580,145.3000
7.1580,146.7500
Z" /> 
<path style="fill:#000000; fill-opacity:1.0000; stroke:none;fill-rule:evenodd;"
d="M 7.7580,146.7500
7.7580,145.3000
8.7580,145.3000
8.7580,146.7500
Z" /> 
<path style="fill:#000000; fill-opacity:1.0000; stroke:none;fill-rule:evenodd;"
d="M 8.5580,6.8750
8.5580,5.5750
8.8580,5.5750
8.8580,6.8750
Z" /> 
<path style="fill:#000000; fill-opacity:1.0000; stroke:none;fill-rule:evenodd;"
d="M 8.0580,6.8750
8.0580,5.5750
8.3580,5.5750
8.3580,6.8750
Z" /> 
<path style="fill:#000000; fill-opacity:1.0000; stroke:none;fill-rule:evenodd;"
d="M 7.5580,6.8750
7.5580,5.5750
7.8580,5.5750
7.8580,6.8750
Z" /> 
<path style="fill:#000000; fill-opacity:1.0000; stroke:none;fill-rule:evenodd;"
d="M 7.0580,6.8750
7.0580,5.5750
7.3580,5.5750
7.3580,6.8750
Z" /> 
<path style="fill:#000000; fill-opacity:1.0000; stroke:none;fill-rule:evenodd;"
d="M 6.5580,6.8750
6.5580,5.5750
6.8580,5.5750
6.8580,6.8750
Z" /> 
<path style="fill:#000000; fill-opacity:1.0000; stroke:none;fill-rule:evenodd;"
d="M 6.0580,6.8750
6.0580,5.5750
6.3580,5.5750
6.3580,6.8750
Z" /> 
<path style="fill:#000000; fill-opacity:1.0000; stroke:none;fill-rule:evenodd;"
d="M 3.3080,4.0750
3.3080,1.8750
5.2080,1.8750
5.2080,4.0750
Z" /> 
<path style="fill:#000000; fill-opacity:1.0000; stroke:none;fill-rule:evenodd;"
d="M 9.7080,4.0750
9.7080,1.8750
11.6080,1.8750
11.6080,4.0750
Z" /> 
<path style="fill:#000000; fill-opacity:1.0000; stroke:none;fill-rule:evenodd;"
d="M 3.2330,141.2500
4.6830,141.2500
4.6830,142.2500
3.2330,142.2500
Z" /> 
<path style="fill:#000000; fill-opacity:1.0000; stroke:none;fill-rule:evenodd;"
d="M 3.2330,142.8500
4.6830,142.8500
4.6830,143.8500
3.2330,143.8500
Z" /> 
<path style="fill:#000000; fill-opacity:1.0000; stroke:none;fill-rule:evenodd;"
d="M 11.6830,143.8250
10.2330,143.8250
10.2330,142.8250
11.6830,142.8250
Z" /> 
<path style="fill:#000000; fill-opacity:1.0000; stroke:none;fill-rule:evenodd;"
d="M 11.6830,142.2250
10.2330,142.2250
10.2330,141.2250
11.6830,141.2250
Z" /> 
<path style="fill:#000000; fill-opacity:1.0000; stroke:none;fill-rule:evenodd;"
d="M 6.1580,139.7500
6.1580,138.3000
7.1580,138.3000
7.1580,139.7500
Z" /> 
<path style="fill:#000000; fill-opacity:1.0000; stroke:none;fill-rule:evenodd;"
d="M 7.7580,139.7500
7.7580,138.3000
8.7580,138.3000
8.7580,139.7500
Z" /> 
<path style="fill:#000000; fill-opacity:1.0000; stroke:none;fill-rule:evenodd;"
d="M 6.0330,142.0687
6.0516,141.9755
6.1044,141.8964
6.1835,141.8436
6.2768,141.8250
6.7643,141.8250
6.8576,141.8436
6.9366,141.8964
6.9895,141.9755
7.0080,142.0687
7.0080,142.9812
6.9895,143.0745
6.9366,143.1536
6.8576,143.2064
6.7643,143.2250
6.2768,143.2250
6.1835,143.2064
6.1044,143.1536
6.0516,143.0745
6.0330,142.9812
Z" /> 
<path style="fill:#000000; fill-opacity:1.0000; stroke:none;fill-rule:evenodd;"
d="M 7.9080,142.0687
7.9266,141.9755
7.9794,141.8964
8.0585,141.8436
8.1518,141.8250
8.6393,141.8250
8.7326,141.8436
8.8116,141.8964
8.8645,141.9755
8.8830,142.0687
8.8830,142.9812
8.8645,143.0745
8.8116,143.1536
8.7326,143.2064
8.6393,143.2250
8.1518,143.2250
8.0585,143.2064
7.9794,143.1536
7.9266,143.0745
7.9080,142.9812
Z" /> 
<path style="fill:#000000; fill-opacity:1.0000; stroke:none;fill-rule:evenodd;"
d="M 8.6080,124.0750
8.5698,124.0674
8.5373,124.0457
8.5156,124.0133
8.5080,123.9750
8.5080,123.7150
8.5156,123.6767
8.5373,123.6443
8.5698,123.6226
8.6080,123.6150
8.8080,123.6150
8.8463,123.6226
8.8787,123.6443
8.9004,123.6767
8.9080,123.7150
8.9080,123.9750
8.9004,124.0133
8.8787,124.0457
8.8463,124.0674
8.8080,124.0750
Z" /> 
<path style="fill:#000000; fill-opacity:1.0000; stroke:none;fill-rule:evenodd;"
d="M 8.6080,123.4350
8.5698,123.4274
8.5373,123.4057
8.5156,123.3733
8.5080,123.3350
8.5080,123.0750
8.5156,123.0367
8.5373,123.0043
8.5698,122.9826
8.6080,122.9750
8.8080,122.9750
8.8463,122.9826
8.8787,123.0043
8.9004,123.0367
8.9080,123.0750
8.9080,123.3350
8.9004,123.3733
8.8787,123.4057
8.8463,123.4274
8.8080,123.4350
Z" /> 
</g>
<g style="fill:none; 
stroke:#000000; stroke-width:0.2000; stroke-opacity:1; 
stroke-linecap:round; stroke-linejoin:round;">
<path d="M11.1955 137.0500
L11.1955 137.5625
" />
<path d="M12.2580 141.7250
L10.9580 141.7250
" />
<path d="M9.4580 141.8032
L9.4580 143.2343
" />
<path d="M12.4580 141.5250
L12.2580 141.7250
" />
<path d="M7.3580 141.1750
L8.2580 140.2750
" />
<path d="M8.0080 147.7500
L4.9080 147.7500
" />
<path d="M11.1955 137.0500
L9.9580 135.8125
" />
<path d="M7.3580 144.0500
L7.3580 141.1750
" />
<path d="M11.1955 137.5375
L12.4580 138.8000
" />
<path d="M8.2580 140.2750
L8.2580 139.0500
" />
<path d="M9.9580 119.2875
L9.9580 119.0250
" />
<path d="M9.9580 8.2500
L9.9580 119.0250
" />
<path d="M8.7080 7.0000
L8.7080 6.2250
" />
<path d="M11.1955 137.0500
L11.1955 137.5375
" />
<path d="M9.5080 147.7500
L8.0080 147.7500
" />
<path d="M9.4580 143.2343
L8.6423 144.0500
" />
<path d="M12.4580 144.8000
L9.5080 147.7500
" />
<path d="M9.6080 141.6532
L9.4580 141.8032
" />
<path d="M8.7080 120.5375
L9.9580 119.2875
" />
<path d="M9.9580 135.8125
L9.9580 119.0250
" />
<path d="M12.4580 138.8000
L12.4580 141.5250
" />
<path d="M3.9580 146.8000
L3.9580 143.8000
" />
<path d="M8.6423 144.0500
L7.3580 144.0500
" />
<path d="M8.7080 120.5375
L8.7080 123.2300
" />
<path d="M12.4580 141.5250
L12.4580 144.8000
" />
<path d="M9.9580 8.2500
L8.7080 7.0000
" />
<path d="M8.0080 147.7500
L8.0080 146.0500
" />
<path d="M11.1955 137.5625
L9.6080 139.1500
" />
<path d="M9.6080 139.1500
L9.6080 141.6532
" />
<path d="M4.9080 147.7500
L3.9580 146.8000
" />
<path d="M8.0580 137.4500
L8.0580 7.9250
" />
<path d="M8.0580 7.9250
L8.2080 7.7750
" />
<path d="M6.2705 142.5500
L6.2705 141.2375
" />
<path d="M7.4580 138.0500
L8.0580 137.4500
" />
<path d="M8.2080 7.7750
L8.2080 6.2250
" />
<path d="M7.4580 140.0500
L7.4580 138.0500
" />
<path d="M6.2705 141.2375
L7.4580 140.0500
" />
<path d="M9.2080 141.4875
L8.1455 142.5500
" />
<path d="M9.2080 124.3700
L9.2080 141.4875
" />
<path d="M8.7080 123.8700
L9.2080 124.3700
" />
<path d="M7.7080 9.5500
L7.7080 6.2250
" />
<path d="M6.4080 10.8500
L7.7080 9.5500
" />
<path d="M6.4080 139.0500
L6.4080 10.8500
" />
<path d="M3.9580 141.5000
L3.9580 8.4750
" />
<path d="M3.9580 8.4750
L6.2080 6.2250
" />
<path d="M6.7080 9.4186
L6.7080 6.2250
" />
<path d="M6.4080 146.0500
L6.1830 145.8250
" />
<path d="M4.9580 140.5250
L4.7080 140.2750
" />
<path d="M4.9580 140.5250
L4.9580 144.3250
" />
<path d="M4.9580 144.3250
L6.6580 146.0250
" />
<path d="M4.7080 140.2750
L4.7080 11.4186
" />
<path d="M4.7080 11.4186
L6.7080 9.4186
" />
<path d="M9.9080 143.3500
L8.7080 144.5500
" />
<path d="M5.4580 143.2000
L5.4580 11.2343
" />
<path d="M5.4580 11.2343
L7.2080 9.4843
" />
<path d="M8.7080 144.5500
L6.8080 144.5500
" />
<path d="M7.2080 9.4843
L7.2080 6.2250
" />
<path d="M10.7080 143.3500
L9.9080 143.3500
" />
<path d="M6.8080 144.5500
L5.4580 143.2000
" />
</g> 
</svg>
