%TF.GenerationSoftware,KiCad,Pcbnew,8.0.9-8.0.9-0~ubuntu24.04.1*%
%TF.CreationDate,2026-04-26T23:51:10+01:00*%
%TF.ProjectId,STOF_v3,53544f46-5f76-4332-9e6b-696361645f70,rev?*%
%TF.SameCoordinates,Original*%
%TF.FileFunction,Legend,Top*%
%TF.FilePolarity,Positive*%
%FSLAX46Y46*%
G04 Gerber Fmt 4.6, Leading zero omitted, Abs format (unit mm)*
G04 Created by KiCad (PCBNEW 8.0.9-8.0.9-0~ubuntu24.04.1) date 2026-04-26 23:51:10*
%MOMM*%
%LPD*%
G01*
G04 APERTURE LIST*
%ADD10C,0.200000*%
%ADD11C,0.127000*%
%ADD12C,0.120000*%
G04 APERTURE END LIST*
D10*
%TO.C,J1*%
X141350000Y-30565000D02*
G75*
G02*
X141150000Y-30565000I-100000J0D01*
G01*
X141150000Y-30565000D02*
G75*
G02*
X141350000Y-30565000I100000J0D01*
G01*
D11*
X143650000Y-24500000D02*
X143650000Y-23500000D01*
X143650000Y-23500000D02*
X136350000Y-23500000D01*
X136350000Y-23500000D02*
X136350000Y-24500000D01*
X136350000Y-27400000D02*
X136350000Y-28500000D01*
X136350000Y-28500000D02*
X138250000Y-28500000D01*
X141750000Y-28500000D02*
X143650000Y-28500000D01*
X143650000Y-28500000D02*
X143650000Y-27400000D01*
D10*
%TO.C,PD3*%
X137900000Y-169000000D02*
G75*
G02*
X137700000Y-169000000I-100000J0D01*
G01*
X137700000Y-169000000D02*
G75*
G02*
X137900000Y-169000000I100000J0D01*
G01*
%TO.C,PD4*%
X136600000Y-163325000D02*
G75*
G02*
X136400000Y-163325000I-100000J0D01*
G01*
X136400000Y-163325000D02*
G75*
G02*
X136600000Y-163325000I100000J0D01*
G01*
%TO.C,PD2*%
X143600000Y-167700000D02*
G75*
G02*
X143400000Y-167700000I-100000J0D01*
G01*
X143400000Y-167700000D02*
G75*
G02*
X143600000Y-167700000I100000J0D01*
G01*
%TO.C,PD1*%
X137900000Y-162000000D02*
G75*
G02*
X137700000Y-162000000I-100000J0D01*
G01*
X137700000Y-162000000D02*
G75*
G02*
X137900000Y-162000000I100000J0D01*
G01*
D12*
%TO.C,LED1*%
X138315000Y-164540000D02*
X138315000Y-166460000D01*
X138315000Y-166460000D02*
X141000000Y-166460000D01*
X141000000Y-164540000D02*
X138315000Y-164540000D01*
%TD*%
M02*
