%TF.GenerationSoftware,KiCad,Pcbnew,8.0.9-8.0.9-0~ubuntu24.04.1*%
%TF.CreationDate,2026-04-26T23:51:10+01:00*%
%TF.ProjectId,STOF_v3,53544f46-5f76-4332-9e6b-696361645f70,rev?*%
%TF.SameCoordinates,Original*%
%TF.FileFunction,Copper,L1,Top*%
%TF.FilePolarity,Positive*%
%FSLAX46Y46*%
G04 Gerber Fmt 4.6, Leading zero omitted, Abs format (unit mm)*
G04 Created by KiCad (PCBNEW 8.0.9-8.0.9-0~ubuntu24.04.1) date 2026-04-26 23:51:10*
%MOMM*%
%LPD*%
G01*
G04 APERTURE LIST*
G04 Aperture macros list*
%AMRoundRect*
0 Rectangle with rounded corners*
0 $1 Rounding radius*
0 $2 $3 $4 $5 $6 $7 $8 $9 X,Y pos of 4 corners*
0 Add a 4 corners polygon primitive as box body*
4,1,4,$2,$3,$4,$5,$6,$7,$8,$9,$2,$3,0*
0 Add four circle primitives for the rounded corners*
1,1,$1+$1,$2,$3*
1,1,$1+$1,$4,$5*
1,1,$1+$1,$6,$7*
1,1,$1+$1,$8,$9*
0 Add four rect primitives between the rounded corners*
20,1,$1+$1,$2,$3,$4,$5,0*
20,1,$1+$1,$4,$5,$6,$7,0*
20,1,$1+$1,$6,$7,$8,$9,0*
20,1,$1+$1,$8,$9,$2,$3,0*%
G04 Aperture macros list end*
%TA.AperFunction,SMDPad,CuDef*%
%ADD10R,1.900000X2.200000*%
%TD*%
%TA.AperFunction,SMDPad,CuDef*%
%ADD11R,0.300000X1.300000*%
%TD*%
%TA.AperFunction,SMDPad,CuDef*%
%ADD12R,1.000000X1.450000*%
%TD*%
%TA.AperFunction,SMDPad,CuDef*%
%ADD13R,1.450000X1.000000*%
%TD*%
%TA.AperFunction,SMDPad,CuDef*%
%ADD14RoundRect,0.243750X-0.243750X-0.456250X0.243750X-0.456250X0.243750X0.456250X-0.243750X0.456250X0*%
%TD*%
%TA.AperFunction,SMDPad,CuDef*%
%ADD15RoundRect,0.100000X0.100000X-0.130000X0.100000X0.130000X-0.100000X0.130000X-0.100000X-0.130000X0*%
%TD*%
%TA.AperFunction,Conductor*%
%ADD16C,0.200000*%
%TD*%
G04 APERTURE END LIST*
D10*
%TO.P,J1,S1*%
%TO.N,N/C*%
X136800000Y-25950000D03*
%TO.P,J1,S2*%
X143200000Y-25950000D03*
D11*
%TO.P,J1,1,1*%
%TO.N,+5V*%
X141250000Y-29200000D03*
%TO.P,J1,2,2*%
%TO.N,GND*%
X140750000Y-29200000D03*
%TO.P,J1,3,3*%
%TO.N,Net-(J1-Pad3)*%
X140250000Y-29200000D03*
%TO.P,J1,4,4*%
%TO.N,Net-(J1-Pad4)*%
X139750000Y-29200000D03*
%TO.P,J1,5,5*%
%TO.N,Net-(J1-Pad5)*%
X139250000Y-29200000D03*
%TO.P,J1,6,6*%
%TO.N,Net-(J1-Pad6)*%
X138750000Y-29200000D03*
%TD*%
D12*
%TO.P,PD3,A*%
%TO.N,Net-(J1-Pad5)*%
X139200000Y-169000000D03*
%TO.P,PD3,C*%
%TO.N,+5V*%
X140800000Y-169000000D03*
%TD*%
D13*
%TO.P,PD4,A*%
%TO.N,Net-(J1-Pad6)*%
X136500000Y-164725000D03*
%TO.P,PD4,C*%
%TO.N,+5V*%
X136500000Y-166325000D03*
%TD*%
%TO.P,PD2,A*%
%TO.N,Net-(J1-Pad4)*%
X143500000Y-166300000D03*
%TO.P,PD2,C*%
%TO.N,+5V*%
X143500000Y-164700000D03*
%TD*%
D12*
%TO.P,PD1,A*%
%TO.N,Net-(J1-Pad3)*%
X139200000Y-162000000D03*
%TO.P,PD1,C*%
%TO.N,+5V*%
X140800000Y-162000000D03*
%TD*%
D14*
%TO.P,LED1,1,K*%
%TO.N,GND*%
X139062500Y-165500000D03*
%TO.P,LED1,2,A*%
%TO.N,Net-(LED1-A)*%
X140937500Y-165500000D03*
%TD*%
D15*
%TO.P,R1,1*%
%TO.N,Net-(LED1-A)*%
X141250000Y-146820000D03*
%TO.P,R1,2*%
%TO.N,+5V*%
X141250000Y-146180000D03*
%TD*%
D16*
%TO.N,Net-(J1-Pad4)*%
X143250000Y-166325000D02*
X142450000Y-166325000D01*
X142450000Y-166325000D02*
X141250000Y-167525000D01*
X139350000Y-167525000D02*
X138000000Y-166175000D01*
X141250000Y-167525000D02*
X139350000Y-167525000D01*
X138000000Y-166175000D02*
X138000000Y-34209314D01*
X139750000Y-32459314D02*
X139750000Y-29200000D01*
X138000000Y-34209314D02*
X139750000Y-32459314D01*
%TO.N,Net-(J1-Pad5)*%
X137500000Y-163500000D02*
X137500000Y-167300000D01*
X137500000Y-167300000D02*
X139200000Y-169000000D01*
X137500000Y-163500000D02*
X137250000Y-163250000D01*
X137250000Y-163250000D02*
X137250000Y-34393628D01*
X139250000Y-32393628D02*
X139250000Y-29200000D01*
X137250000Y-34393628D02*
X139250000Y-32393628D01*
%TO.N,+5V*%
X143737500Y-160025000D02*
X143737500Y-160537500D01*
X143737500Y-160537500D02*
X142150000Y-162125000D01*
X142150000Y-162125000D02*
X142150000Y-164628186D01*
X139900000Y-167025000D02*
X139900000Y-164150000D01*
X142150000Y-164628186D02*
X142000000Y-164778186D01*
X141184314Y-167025000D02*
X139900000Y-167025000D01*
X142000000Y-164778186D02*
X142000000Y-166209314D01*
X139900000Y-164150000D02*
X140800000Y-163250000D01*
X142000000Y-166209314D02*
X141184314Y-167025000D01*
X140800000Y-163250000D02*
X140800000Y-162025000D01*
X145000000Y-164500000D02*
X145000000Y-167775000D01*
X145000000Y-164500000D02*
X144800000Y-164700000D01*
X145000000Y-161775000D02*
X145000000Y-164500000D01*
X144800000Y-164700000D02*
X143500000Y-164700000D01*
X143737500Y-160025000D02*
X143737500Y-160512500D01*
X142050000Y-170725000D02*
X140550000Y-170725000D01*
X143737500Y-160512500D02*
X145000000Y-161775000D01*
X145000000Y-167775000D02*
X142050000Y-170725000D01*
%TO.N,GND*%
X140000000Y-163025000D02*
X140000000Y-161025000D01*
X138812500Y-165525000D02*
X138812500Y-164212500D01*
X138812500Y-164212500D02*
X140000000Y-163025000D01*
X140000000Y-161025000D02*
X140600000Y-160425000D01*
X140600000Y-160425000D02*
X140600000Y-30900000D01*
X140600000Y-30900000D02*
X140750000Y-30750000D01*
X140750000Y-30750000D02*
X140750000Y-29200000D01*
%TO.N,+5V*%
X140550000Y-170725000D02*
X137450000Y-170725000D01*
X137450000Y-170725000D02*
X136500000Y-169775000D01*
X136500000Y-169775000D02*
X136500000Y-166775000D01*
X142500000Y-31225000D02*
X141250000Y-29975000D01*
X141250000Y-29975000D02*
X141250000Y-29200000D01*
%TO.N,Net-(J1-Pad3)*%
X138950000Y-162025000D02*
X138950000Y-33825000D01*
X138950000Y-33825000D02*
X140250000Y-32525000D01*
X140250000Y-32525000D02*
X140250000Y-29200000D01*
%TO.N,Net-(J1-Pad5)*%
X138950000Y-169025000D02*
X138725000Y-168800000D01*
%TO.N,Net-(J1-Pad6)*%
X136500000Y-164475000D02*
X136500000Y-31450000D01*
X136500000Y-31450000D02*
X138750000Y-29200000D01*
%TO.N,+5V*%
X142500000Y-31225000D02*
X142500000Y-142000000D01*
X142500000Y-158787500D02*
X142500000Y-142000000D01*
X141250000Y-143512500D02*
X142500000Y-142262500D01*
X142500000Y-142262500D02*
X142500000Y-142000000D01*
X143737500Y-160025000D02*
X142500000Y-158787500D01*
X141250000Y-143512500D02*
X141250000Y-146205000D01*
X140550000Y-170725000D02*
X140550000Y-169025000D01*
%TO.N,Net-(LED1-A)*%
X141750000Y-164462500D02*
X140687500Y-165525000D01*
X141750000Y-147345000D02*
X141750000Y-164462500D01*
X141250000Y-146845000D02*
X141750000Y-147345000D01*
%TD*%
M02*
